<svg id="Layer_1" height="512" viewBox="0 0 512 512" width="512" xmlns="http://www.w3.org/2000/svg" xmlns:xlink="http://www.w3.org/1999/xlink" data-name="Layer 1"><linearGradient id="linear-gradient" gradientUnits="userSpaceOnUse" x1="256" x2="256" y1="300.679" y2="216.358"><stop offset=".322" stop-color="#a163f5"/><stop offset=".466" stop-color="#b074ee"/><stop offset=".752" stop-color="#d8a1dd"/><stop offset=".898" stop-color="#efbad3"/></linearGradient><linearGradient id="linear-gradient-2" x1="66.615" x2="66.615" xlink:href="#linear-gradient" y1="300.679" y2="216.358"/><linearGradient id="linear-gradient-7" x1="289.844" x2="289.844" xlink:href="#linear-gradient" y1="300.679" y2="216.358"/><linearGradient id="linear-gradient-8" x1="129.705" x2="129.705" xlink:href="#linear-gradient" y1="300.679" y2="216.358"/><linearGradient id="linear-gradient-9" x1="196.506" x2="196.506" xlink:href="#linear-gradient" y1="300.679" y2="216.358"/><linearGradient id="linear-gradient-10" x1="261.096" x2="261.096" xlink:href="#linear-gradient" y1="300.679" y2="216.358"/><linearGradient id="linear-gradient-11" x1="111.164" x2="111.164" xlink:href="#linear-gradient" y1="300.679" y2="216.358"/><path d="m483.532 229.5a6 6 0 0 0 -5.84-.259l-106.814 53.509v-58.626a6 6 0 0 0 -6-6h-61.79a84.659 84.659 0 1 0 -83.984 0h-72.97a60.421 60.421 0 1 0 -69.94 0h-44.574a6 6 0 0 0 -6 6v221.876a6 6 0 0 0 6 6h333.258a6 6 0 0 0 6-6v-58.59l106.816 53.474a6 6 0 0 0 8.686-5.365v-200.914a6 6 0 0 0 -2.848-5.105zm-295.095-84.841a72.66 72.66 0 1 1 72.659 72.66 72.741 72.741 0 0 1 -72.659-72.66zm-125.694 24.241a48.421 48.421 0 1 1 48.421 48.422 48.475 48.475 0 0 1 -48.421-48.422zm28.694 271.1h-53.817v-209.876h53.817zm267.441 0h-255.441v-209.876h255.441zm115.5-14.195-103.5-51.814v-77.82l103.5-51.849z" fill="url(#linear-gradient)"/><g fill="url(#linear-gradient-2)"><path d="m55.345 267.211h22.541v12h-22.541z"/><path d="m55.345 298.248h22.541v12h-22.541z"/><path d="m55.345 329.285h22.541v12h-22.541z"/><path d="m55.345 360.321h22.541v12h-22.541z"/><path d="m55.345 391.358h22.541v12h-22.541z"/></g><path d="m289.844 295.136a19.712 19.712 0 1 0 -19.711-19.712 19.734 19.734 0 0 0 19.711 19.712zm0-27.423a7.712 7.712 0 1 1 -7.711 7.711 7.72 7.72 0 0 1 7.711-7.711z" fill="url(#linear-gradient-7)"/><path d="m122.317 248.611h14.778v12h-14.778z" fill="url(#linear-gradient-8)"/><path d="m148.917 248.611h95.177v12h-95.177z" fill="url(#linear-gradient-9)"/><path d="m295.163 144.659a34.067 34.067 0 1 0 -34.063 34.068 34.1 34.1 0 0 0 34.063-34.068zm-56.134 0a22.067 22.067 0 1 1 22.071 22.068 22.092 22.092 0 0 1 -22.071-22.068z" fill="url(#linear-gradient-10)"/><path d="m111.164 196.586a27.688 27.688 0 1 0 -27.688-27.686 27.72 27.72 0 0 0 27.688 27.686zm0-43.376a15.688 15.688 0 1 1 -15.688 15.69 15.7 15.7 0 0 1 15.688-15.69z" fill="url(#linear-gradient-11)"/></svg>