<?xml version="1.0"?>
<svg xmlns="http://www.w3.org/2000/svg" xmlns:xlink="http://www.w3.org/1999/xlink" id="Layer_1" data-name="Layer 1" viewBox="0 0 512 512" width="512" height="512"><defs><linearGradient id="linear-gradient" x1="380.976" y1="484" x2="380.976" y2="19.724" gradientUnits="userSpaceOnUse"><stop offset="0.322" stop-color="#a163f5"/><stop offset="0.466" stop-color="#b074ee"/><stop offset="0.752" stop-color="#d8a1dd"/><stop offset="0.898" stop-color="#efbad3"/></linearGradient><linearGradient id="linear-gradient-2" x1="256.002" y1="484" x2="256.002" y2="19.724" xlink:href="#linear-gradient"/></defs><title>location 2</title><path d="M380.976,323.479c-23.773,0-43.113,19.776-43.113,44.083s19.34,44.083,43.113,44.083,43.112-19.776,43.112-44.083S404.748,323.479,380.976,323.479Zm0,74.166c-16.053,0-29.113-13.5-29.113-30.083s13.06-30.083,29.113-30.083,29.112,13.5,29.112,30.083S397.028,397.645,380.976,397.645Z" style="fill:url(#linear-gradient)"/><path d="M445.047,306.7a90.471,90.471,0,0,0-128.142,0,95.777,95.777,0,0,0-24.212,41.309l-35.3-11.445V304.242A102.7,102.7,0,0,0,305.608,235.4l4.158-14.295a32.863,32.863,0,0,0,21.758-39.064,26.181,26.181,0,0,0-17.058-18.723V116.638a109.764,109.764,0,0,0-219.527,0V163.3a26.183,26.183,0,0,0-17.1,18.74A32.861,32.861,0,0,0,99.6,221.1l4.155,14.294a102.707,102.707,0,0,0,48.222,68.847V336.56L81.146,359.523c-19.783,6.415-34.784,21.862-40.126,41.319-.209.757-.4,1.519-.583,2.293a57.143,57.143,0,0,0-1.413,13.123v51.6a7,7,0,0,0,7,7h303.5l26.346,28.062a7,7,0,0,0,10.207,0l60.328-64.259a97.409,97.409,0,0,0,20.9-33.2,90.741,90.741,0,0,0,5.472-37.342A96.049,96.049,0,0,0,445.047,306.7ZM213.566,118.666c8.93,9.5,36.973,34.724,86.9,39.855v3.6c-19.341-.475-76.524-4.717-121.935-36.891l.628-.082A298.247,298.247,0,0,0,213.566,118.666Zm-104.627-2.028a95.764,95.764,0,0,1,191.527,0v27.785c-36.664-4.161-60.155-20.4-71.32-30.248,18.726-6.144,34.674-14.221,47.671-24.189A7,7,0,0,0,268.3,78.877C241.733,99.25,204.315,107.716,177.6,111.23a327.193,327.193,0,0,1-52.851,2.737,7,7,0,0,0-7.352,6.673l-1.7,37.313a6.662,6.662,0,0,1-3.54,5.646,7,7,0,0,1-3.222.837Zm8.509,115.83c-.042-.222-.094-.443-.158-.66l-5.144-17.7a7,7,0,0,0-5.692-5.7,18.85,18.85,0,0,1-15.018-23.04A12.135,12.135,0,0,1,100,176.386a20.763,20.763,0,0,0,29.686-17.8l1.387-30.464c6.03.057,15.592-.057,27.289-.889,31.215,26.769,69.542,38.645,96.493,43.9,29.77,5.8,51.95,5.031,52.877,5,.158-.006.311-.025.464-.041a12.247,12.247,0,0,1,9.729,9.273,19,19,0,0,1,.539,4.5,18.782,18.782,0,0,1-15.557,18.542,7,7,0,0,0-5.691,5.7l-5.146,17.7q-.094.326-.158.66a88.762,88.762,0,0,1-174.466,0Zm87.234,86.36a102.4,102.4,0,0,0,38.707-7.582v26.2a90.035,90.035,0,0,1-77.414,0v-26.2A102.4,102.4,0,0,0,204.682,318.828ZM53.024,460.854v-44.6a43.446,43.446,0,0,1,1.045-9.937q.208-.888.45-1.769c4.091-14.9,15.66-26.755,30.945-31.71l72.784-23.6a103.985,103.985,0,0,0,92.867,0l38.711,12.551c-.279,2.1-.514,4.2-.656,6.321a90.725,90.725,0,0,0,5.473,37.342,97.405,97.405,0,0,0,20.9,33.2l20.838,22.2Zm401.133-60.2A83.492,83.492,0,0,1,436.2,429.075L380.976,487.9l-55.224-58.822A83.523,83.523,0,0,1,307.8,400.658a76.814,76.814,0,0,1-4.656-31.609,82.053,82.053,0,0,1,23.683-52.471,76.471,76.471,0,0,1,108.308,0,82.053,82.053,0,0,1,23.683,52.471A76.8,76.8,0,0,1,454.157,400.658Z" style="fill:url(#linear-gradient-2)"/></svg>
